<svg xmlns="http://www.w3.org/2000/svg" viewBox="0 0 64 64" role="img" aria-labelledby="title desc">
  <title id="title">Villa Olimpia Sea Icon</title>
  <desc id="desc">Icona mare e sole per favicon di Villa Olimpia, ispirata alla costa ionica.</desc>
  <defs>
    <linearGradient id="bg-sea" x1="0%" y1="0%" x2="100%" y2="100%">
      <stop offset="0%" stop-color="#0e425e" />
      <stop offset="100%" stop-color="#0aa0a5" />
    </linearGradient>
  </defs>
  <rect width="64" height="64" rx="16" fill="url(#bg-sea)" />
  <circle cx="44" cy="20" r="7" fill="#f6d07c" />
  <path d="M16 30c4 0 4-3 8-3s4 3 8 3 4-3 8-3 4 3 8 3" fill="none" stroke="#f6efe3" stroke-linecap="round" stroke-width="3.5" />
  <path d="M14 38c5 0 5-3 10-3s5 3 10 3 5-3 10-3 5 3 10 3" fill="none" stroke="#f6efe3" stroke-linecap="round" stroke-width="3.5" opacity="0.95" />
  <path d="M18 47c4 0 4-2.5 8-2.5s4 2.5 8 2.5 4-2.5 8-2.5 4 2.5 8 2.5" fill="none" stroke="#f6efe3" stroke-linecap="round" stroke-width="3.5" opacity="0.85" />
</svg>
